# Blender 4.5.1 LTS
# www.blender.org
mtllib LEFT.mtl
o Text.002
v 1.869400 4.594000 0.180000
v 1.810000 4.000000 0.180000
v 1.712000 4.000000 0.180000
v 1.771400 4.594000 0.180000
v 1.535400 4.594000 0.180000
v 1.544200 4.682000 0.180000
v 2.114200 4.682000 0.180000
v 2.105400 4.594000 0.180000
v 1.223400 4.594000 0.180000
v 1.204500 4.405000 0.180000
v 1.470500 4.405000 0.180000
v 1.461700 4.317000 0.180000
v 1.195700 4.317000 0.180000
v 1.164000 4.000000 0.180000
v 1.066000 4.000000 0.180000
v 1.134200 4.682000 0.180000
v 1.498200 4.682000 0.180000
v 1.489400 4.594000 0.180000
v 0.722400 4.594000 0.180000
v 0.701800 4.388000 0.180000
v 0.980800 4.388000 0.180000
v 0.972000 4.300000 0.180000
v 0.693000 4.300000 0.180000
v 0.671800 4.088000 0.180000
v 0.969800 4.088000 0.180000
v 0.961000 4.000000 0.180000
v 0.565000 4.000000 0.180000
v 0.633200 4.682000 0.180000
v 1.020200 4.682000 0.180000
v 1.011400 4.594000 0.180000
v 0.488800 4.088000 0.180000
v 0.480000 4.000000 0.180000
v 0.074000 4.000000 0.180000
v 0.142200 4.682000 0.180000
v 0.240200 4.682000 0.180000
v 0.180800 4.088000 0.180000
v 1.869400 4.594000 -0.180000
v 1.810000 4.000000 -0.180000
v 1.712000 4.000000 -0.180000
v 1.771400 4.594000 -0.180000
v 1.535400 4.594000 -0.180000
v 1.544200 4.682000 -0.180000
v 2.114200 4.682000 -0.180000
v 2.105400 4.594000 -0.180000
v 1.223400 4.594000 -0.180000
v 1.204500 4.405000 -0.180000
v 1.470500 4.405000 -0.180000
v 1.461700 4.317000 -0.180000
v 1.195700 4.317000 -0.180000
v 1.164000 4.000000 -0.180000
v 1.066000 4.000000 -0.180000
v 1.134200 4.682000 -0.180000
v 1.498200 4.682000 -0.180000
v 1.489400 4.594000 -0.180000
v 0.722400 4.594000 -0.180000
v 0.701800 4.388000 -0.180000
v 0.980800 4.388000 -0.180000
v 0.972000 4.300000 -0.180000
v 0.693000 4.300000 -0.180000
v 0.671800 4.088000 -0.180000
v 0.969800 4.088000 -0.180000
v 0.961000 4.000000 -0.180000
v 0.565000 4.000000 -0.180000
v 0.633200 4.682000 -0.180000
v 1.020200 4.682000 -0.180000
v 1.011400 4.594000 -0.180000
v 0.488800 4.088000 -0.180000
v 0.480000 4.000000 -0.180000
v 0.074000 4.000000 -0.180000
v 0.142200 4.682000 -0.180000
v 0.240200 4.682000 -0.180000
v 0.180800 4.088000 -0.180000
v 0.488800 4.088000 -0.180000
v 0.488800 4.088000 0.180000
v 0.480000 4.000000 -0.180000
v 0.480000 4.000000 0.180000
v 0.074000 4.000000 -0.180000
v 0.074000 4.000000 0.180000
v 0.142200 4.682000 -0.180000
v 0.142200 4.682000 0.180000
v 0.240200 4.682000 -0.180000
v 0.240200 4.682000 0.180000
v 0.180800 4.088000 -0.180000
v 0.180800 4.088000 0.180000
v 0.722400 4.594000 -0.180000
v 0.722400 4.594000 0.180000
v 0.701800 4.388000 -0.180000
v 0.701800 4.388000 0.180000
v 0.980800 4.388000 -0.180000
v 0.980800 4.388000 0.180000
v 0.972000 4.300000 -0.180000
v 0.972000 4.300000 0.180000
v 0.693000 4.300000 -0.180000
v 0.693000 4.300000 0.180000
v 0.671800 4.088000 -0.180000
v 0.671800 4.088000 0.180000
v 0.969800 4.088000 -0.180000
v 0.969800 4.088000 0.180000
v 0.961000 4.000000 -0.180000
v 0.961000 4.000000 0.180000
v 0.565000 4.000000 -0.180000
v 0.565000 4.000000 0.180000
v 0.633200 4.682000 -0.180000
v 0.633200 4.682000 0.180000
v 1.020200 4.682000 -0.180000
v 1.020200 4.682000 0.180000
v 1.011400 4.594000 -0.180000
v 1.011400 4.594000 0.180000
v 1.223400 4.594000 -0.180000
v 1.223400 4.594000 0.180000
v 1.204500 4.405000 -0.180000
v 1.204500 4.405000 0.180000
v 1.470500 4.405000 -0.180000
v 1.470500 4.405000 0.180000
v 1.461700 4.317000 -0.180000
v 1.461700 4.317000 0.180000
v 1.195700 4.317000 -0.180000
v 1.195700 4.317000 0.180000
v 1.164000 4.000000 -0.180000
v 1.164000 4.000000 0.180000
v 1.066000 4.000000 -0.180000
v 1.066000 4.000000 0.180000
v 1.134200 4.682000 -0.180000
v 1.134200 4.682000 0.180000
v 1.498200 4.682000 -0.180000
v 1.498200 4.682000 0.180000
v 1.489400 4.594000 -0.180000
v 1.489400 4.594000 0.180000
v 1.869400 4.594000 -0.180000
v 1.869400 4.594000 0.180000
v 1.810000 4.000000 -0.180000
v 1.810000 4.000000 0.180000
v 1.712000 4.000000 -0.180000
v 1.712000 4.000000 0.180000
v 1.771400 4.594000 -0.180000
v 1.771400 4.594000 0.180000
v 1.535400 4.594000 -0.180000
v 1.535400 4.594000 0.180000
v 1.544200 4.682000 -0.180000
v 1.544200 4.682000 0.180000
v 2.114200 4.682000 -0.180000
v 2.114200 4.682000 0.180000
v 2.105400 4.594000 -0.180000
v 2.105400 4.594000 0.180000
vn -0.0000 -0.0000 1.0000
vn -0.0000 -0.0000 -1.0000
vn 0.7415 0.6710 -0.0000
vn 0.6710 -0.7415 -0.0000
vn -0.7415 -0.6710 -0.0000
vn -0.6710 0.7415 -0.0000
vt 0.571429 0.000000
vt 0.857143 0.000000
vt 0.714286 0.000000
vt 1.000000 0.000000
vt 0.428571 0.000000
vt 0.285714 0.000000
vt 0.000000 0.000000
vt 0.142857 0.000000
vt 0.666667 0.000000
vt 0.777778 0.000000
vt 0.888889 0.000000
vt 0.111111 0.000000
vt 0.444444 0.000000
vt 0.222222 0.000000
vt 0.333333 0.000000
vt 0.555556 0.000000
vt 0.727273 0.000000
vt 0.818182 0.000000
vt 0.909091 0.000000
vt 0.090909 0.000000
vt 0.363636 0.000000
vt 0.181818 0.000000
vt 0.272727 0.000000
vt 0.454545 0.000000
vt 0.545455 0.000000
vt 0.636364 0.000000
vt 0.400000 0.000000
vt 0.800000 0.000000
vt 0.600000 0.000000
vt 0.200000 0.000000
vt 0.000000 1.000000
vt 0.166667 1.000000
vt 0.166667 0.000000
vt 0.333333 1.000000
vt 0.500000 1.000000
vt 0.500000 0.000000
vt 0.666667 1.000000
vt 0.833333 1.000000
vt 0.833333 0.000000
vt 1.000000 1.000000
vt 0.083333 1.000000
vt 0.083333 0.000000
vt 0.250000 1.000000
vt 0.250000 0.000000
vt 0.416667 1.000000
vt 0.416667 0.000000
vt 0.583333 1.000000
vt 0.583333 0.000000
vt 0.750000 1.000000
vt 0.750000 0.000000
vt 0.916667 1.000000
vt 0.916667 0.000000
vt 0.100000 1.000000
vt 0.100000 0.000000
vt 0.200000 1.000000
vt 0.300000 1.000000
vt 0.300000 0.000000
vt 0.400000 1.000000
vt 0.600000 1.000000
vt 0.700000 1.000000
vt 0.700000 0.000000
vt 0.800000 1.000000
vt 0.900000 1.000000
vt 0.900000 0.000000
vt 0.125000 1.000000
vt 0.125000 0.000000
vt 0.375000 1.000000
vt 0.375000 0.000000
vt 0.625000 1.000000
vt 0.625000 0.000000
vt 0.875000 1.000000
vt 0.875000 0.000000
s 0
f 5/1/1 7/2/1 6/3/1
f 5/1/1 8/4/1 7/2/1
f 4/5/2 8/4/2 5/1/2
f 3/6/1 1/7/1 4/5/1
f 1/7/1 8/4/1 4/5/1
f 3/6/1 2/8/1 1/7/1
f 15/9/1 9/7/1 16/10/1
f 9/7/1 17/11/1 16/10/1
f 9/7/1 18/4/1 17/11/1
f 15/9/1 10/12/1 9/7/1
f 15/9/1 13/13/1 10/12/1
f 13/13/1 11/14/1 10/12/1
f 13/13/1 12/15/1 11/14/1
f 15/9/1 14/16/1 13/13/1
f 27/17/1 19/7/1 28/18/1
f 19/7/1 29/19/1 28/18/1
f 19/7/1 30/4/1 29/19/1
f 27/17/1 20/20/1 19/7/1
f 27/17/1 23/21/1 20/20/1
f 23/21/1 21/22/1 20/20/1
f 23/21/1 22/23/1 21/22/1
f 27/17/1 24/24/1 23/21/1
f 27/17/1 25/25/1 24/24/1
f 27/17/1 26/26/1 25/25/1
f 33/27/1 35/28/1 34/29/1
f 33/27/1 36/4/1 35/28/1
f 33/27/1 31/7/1 36/4/1
f 33/27/1 32/30/1 31/7/1
f 41/1/2 42/3/2 43/2/2
f 41/1/2 43/2/2 44/4/2
f 40/5/1 41/1/1 44/4/1
f 39/6/2 40/5/2 37/7/2
f 37/7/1 40/5/1 44/4/1
f 39/6/2 37/7/2 38/8/2
f 51/9/2 52/10/2 45/7/2
f 45/7/2 52/10/2 53/11/2
f 45/7/2 53/11/2 54/4/2
f 51/9/2 45/7/2 46/12/2
f 51/9/2 46/12/2 49/13/2
f 49/13/2 46/12/2 47/14/2
f 49/13/2 47/14/2 48/15/2
f 51/9/2 49/13/2 50/16/2
f 63/17/2 64/18/2 55/7/2
f 55/7/2 64/18/2 65/19/2
f 55/7/2 65/19/2 66/4/2
f 63/17/2 55/7/2 56/20/2
f 63/17/2 56/20/2 59/21/2
f 59/21/2 56/20/2 57/22/2
f 59/21/2 57/22/2 58/23/2
f 63/17/2 59/21/2 60/24/2
f 63/17/2 60/24/2 61/25/2
f 63/17/2 61/25/2 62/26/2
f 69/27/2 70/29/2 71/28/2
f 69/27/2 71/28/2 72/4/2
f 69/27/2 72/4/2 67/7/2
f 69/27/2 67/7/2 68/30/2
s 1
f 74/31/3 76/32/4 75/33/4 73/7/3
f 76/32/4 78/34/5 77/15/5 75/33/4
f 78/34/5 80/35/6 79/36/6 77/15/5
f 80/35/6 82/37/3 81/9/3 79/36/6
f 82/37/3 84/38/3 83/39/3 81/9/3
f 84/38/3 74/40/3 73/4/3 83/39/3
f 86/31/4 88/41/3 87/42/3 85/7/4
f 88/41/3 90/32/3 89/33/3 87/42/3
f 90/32/3 92/43/4 91/44/4 89/33/3
f 92/43/4 94/34/4 93/15/4 91/44/4
f 94/34/4 96/45/3 95/46/3 93/15/4
f 96/45/3 98/35/3 97/36/3 95/46/3
f 98/35/3 100/47/4 99/48/4 97/36/3
f 100/47/4 102/37/5 101/9/5 99/48/4
f 102/37/5 104/49/6 103/50/6 101/9/5
f 104/49/6 106/38/3 105/39/3 103/50/6
f 106/38/3 108/51/4 107/52/4 105/39/3
f 108/51/4 86/40/4 85/4/4 107/52/4
f 110/31/4 112/53/3 111/54/3 109/7/4
f 112/53/3 114/55/3 113/30/3 111/54/3
f 114/55/3 116/56/4 115/57/4 113/30/3
f 116/56/4 118/58/4 117/27/4 115/57/4
f 118/58/4 120/35/4 119/36/4 117/27/4
f 120/35/4 122/59/5 121/29/5 119/36/4
f 122/59/5 124/60/6 123/61/6 121/29/5
f 124/60/6 126/62/3 125/28/3 123/61/6
f 126/62/3 128/63/4 127/64/4 125/28/3
f 128/63/4 110/40/4 109/4/4 127/64/4
f 130/31/4 132/65/4 131/66/4 129/7/4
f 132/65/4 134/43/5 133/44/5 131/66/4
f 134/43/5 136/67/5 135/68/5 133/44/5
f 136/67/5 138/35/5 137/36/5 135/68/5
f 138/35/5 140/69/6 139/70/6 137/36/5
f 140/69/6 142/49/3 141/50/3 139/70/6
f 142/49/3 144/71/4 143/72/4 141/50/3
f 144/71/4 130/40/4 129/4/4 143/72/4
