# Blender 4.5.1 LTS
# www.blender.org
mtllib NEXT.mtl
o Text.002
v 2.399400 4.594000 0.180000
v 2.340000 4.000000 0.180000
v 2.242000 4.000000 0.180000
v 2.301400 4.594000 0.180000
v 2.065400 4.594000 0.180000
v 2.074200 4.682000 0.180000
v 2.644200 4.682000 0.180000
v 2.635400 4.594000 0.180000
v 1.987000 4.000000 0.180000
v 1.869000 4.000000 0.180000
v 1.665200 4.282000 0.180000
v 1.402000 4.000000 0.180000
v 1.283000 4.000000 0.180000
v 1.612300 4.353000 0.180000
v 1.372200 4.682000 0.180000
v 1.491200 4.682000 0.180000
v 1.679200 4.422000 0.180000
v 1.918200 4.682000 0.180000
v 2.036200 4.682000 0.180000
v 1.731300 4.353000 0.180000
v 1.013400 4.594000 0.180000
v 0.992800 4.388000 0.180000
v 1.271800 4.388000 0.180000
v 1.263000 4.300000 0.180000
v 0.984000 4.300000 0.180000
v 0.962800 4.088000 0.180000
v 1.260800 4.088000 0.180000
v 1.252000 4.000000 0.180000
v 0.856000 4.000000 0.180000
v 0.924200 4.682000 0.180000
v 1.311200 4.682000 0.180000
v 1.302400 4.594000 0.180000
v 0.622000 4.000000 0.180000
v 0.218500 4.525000 0.180000
v 0.166000 4.000000 0.180000
v 0.074000 4.000000 0.180000
v 0.142200 4.682000 0.180000
v 0.220200 4.682000 0.180000
v 0.629400 4.154000 0.180000
v 0.682200 4.682000 0.180000
v 0.774200 4.682000 0.180000
v 0.706000 4.000000 0.180000
v 2.399400 4.594000 -0.180000
v 2.340000 4.000000 -0.180000
v 2.242000 4.000000 -0.180000
v 2.301400 4.594000 -0.180000
v 2.065400 4.594000 -0.180000
v 2.074200 4.682000 -0.180000
v 2.644200 4.682000 -0.180000
v 2.635400 4.594000 -0.180000
v 1.987000 4.000000 -0.180000
v 1.869000 4.000000 -0.180000
v 1.665200 4.282000 -0.180000
v 1.402000 4.000000 -0.180000
v 1.283000 4.000000 -0.180000
v 1.612300 4.353000 -0.180000
v 1.372200 4.682000 -0.180000
v 1.491200 4.682000 -0.180000
v 1.679200 4.422000 -0.180000
v 1.918200 4.682000 -0.180000
v 2.036200 4.682000 -0.180000
v 1.731300 4.353000 -0.180000
v 1.013400 4.594000 -0.180000
v 0.992800 4.388000 -0.180000
v 1.271800 4.388000 -0.180000
v 1.263000 4.300000 -0.180000
v 0.984000 4.300000 -0.180000
v 0.962800 4.088000 -0.180000
v 1.260800 4.088000 -0.180000
v 1.252000 4.000000 -0.180000
v 0.856000 4.000000 -0.180000
v 0.924200 4.682000 -0.180000
v 1.311200 4.682000 -0.180000
v 1.302400 4.594000 -0.180000
v 0.622000 4.000000 -0.180000
v 0.218500 4.525000 -0.180000
v 0.166000 4.000000 -0.180000
v 0.074000 4.000000 -0.180000
v 0.142200 4.682000 -0.180000
v 0.220200 4.682000 -0.180000
v 0.629400 4.154000 -0.180000
v 0.682200 4.682000 -0.180000
v 0.774200 4.682000 -0.180000
v 0.706000 4.000000 -0.180000
v 0.622000 4.000000 -0.180000
v 0.622000 4.000000 0.180000
v 0.218500 4.525000 -0.180000
v 0.218500 4.525000 0.180000
v 0.166000 4.000000 -0.180000
v 0.166000 4.000000 0.180000
v 0.074000 4.000000 -0.180000
v 0.074000 4.000000 0.180000
v 0.142200 4.682000 -0.180000
v 0.142200 4.682000 0.180000
v 0.220200 4.682000 -0.180000
v 0.220200 4.682000 0.180000
v 0.629400 4.154000 -0.180000
v 0.629400 4.154000 0.180000
v 0.682200 4.682000 -0.180000
v 0.682200 4.682000 0.180000
v 0.774200 4.682000 -0.180000
v 0.774200 4.682000 0.180000
v 0.706000 4.000000 -0.180000
v 0.706000 4.000000 0.180000
v 1.013400 4.594000 -0.180000
v 1.013400 4.594000 0.180000
v 0.992800 4.388000 -0.180000
v 0.992800 4.388000 0.180000
v 1.271800 4.388000 -0.180000
v 1.271800 4.388000 0.180000
v 1.263000 4.300000 -0.180000
v 1.263000 4.300000 0.180000
v 0.984000 4.300000 -0.180000
v 0.984000 4.300000 0.180000
v 0.962800 4.088000 -0.180000
v 0.962800 4.088000 0.180000
v 1.260800 4.088000 -0.180000
v 1.260800 4.088000 0.180000
v 1.252000 4.000000 -0.180000
v 1.252000 4.000000 0.180000
v 0.856000 4.000000 -0.180000
v 0.856000 4.000000 0.180000
v 0.924200 4.682000 -0.180000
v 0.924200 4.682000 0.180000
v 1.311200 4.682000 -0.180000
v 1.311200 4.682000 0.180000
v 1.302400 4.594000 -0.180000
v 1.302400 4.594000 0.180000
v 1.987000 4.000000 -0.180000
v 1.987000 4.000000 0.180000
v 1.869000 4.000000 -0.180000
v 1.869000 4.000000 0.180000
v 1.665200 4.282000 -0.180000
v 1.665200 4.282000 0.180000
v 1.402000 4.000000 -0.180000
v 1.402000 4.000000 0.180000
v 1.283000 4.000000 -0.180000
v 1.283000 4.000000 0.180000
v 1.612300 4.353000 -0.180000
v 1.612300 4.353000 0.180000
v 1.372200 4.682000 -0.180000
v 1.372200 4.682000 0.180000
v 1.491200 4.682000 -0.180000
v 1.491200 4.682000 0.180000
v 1.679200 4.422000 -0.180000
v 1.679200 4.422000 0.180000
v 1.918200 4.682000 -0.180000
v 1.918200 4.682000 0.180000
v 2.036200 4.682000 -0.180000
v 2.036200 4.682000 0.180000
v 1.731300 4.353000 -0.180000
v 1.731300 4.353000 0.180000
v 2.399400 4.594000 -0.180000
v 2.399400 4.594000 0.180000
v 2.340000 4.000000 -0.180000
v 2.340000 4.000000 0.180000
v 2.242000 4.000000 -0.180000
v 2.242000 4.000000 0.180000
v 2.301400 4.594000 -0.180000
v 2.301400 4.594000 0.180000
v 2.065400 4.594000 -0.180000
v 2.065400 4.594000 0.180000
v 2.074200 4.682000 -0.180000
v 2.074200 4.682000 0.180000
v 2.644200 4.682000 -0.180000
v 2.644200 4.682000 0.180000
v 2.635400 4.594000 -0.180000
v 2.635400 4.594000 0.180000
vn -0.0000 -0.0000 1.0000
vn -0.0000 -0.0000 -1.0000
vn -0.4419 -0.8970 -0.0000
vn 0.2742 -0.9617 -0.0000
vn 0.6710 -0.7415 -0.0000
vn -0.7415 -0.6710 -0.0000
vn -0.6710 0.7415 -0.0000
vn 0.4401 0.8979 -0.0000
vn -0.2762 0.9611 -0.0000
vn 0.7415 0.6710 -0.0000
vn 0.8907 -0.4546 -0.0000
vn -0.4551 -0.8904 -0.0000
vn -0.0625 -0.9980 -0.0000
vn 0.3985 -0.9171 -0.0000
vn -0.9171 -0.3987 -0.0000
vn -0.9982 0.0601 -0.0000
vn -0.8915 0.4530 -0.0000
vn 0.4550 0.8905 -0.0000
vn 0.0586 0.9983 -0.0000
vn -0.4020 0.9156 -0.0000
vn 0.9164 0.4002 -0.0000
vn 0.9982 -0.0602 -0.0000
vt 0.571429 0.000000
vt 0.857143 0.000000
vt 0.714286 0.000000
vt 1.000000 0.000000
vt 0.428571 0.000000
vt 0.285714 0.000000
vt 0.000000 0.000000
vt 0.142857 0.000000
vt 0.454545 0.000000
vt 0.636364 0.000000
vt 0.545455 0.000000
vt 0.727273 0.000000
vt 0.909091 0.000000
vt 0.818182 0.000000
vt 0.363636 0.000000
vt 0.181818 0.000000
vt 0.272727 0.000000
vt 0.090909 0.000000
vt 0.333333 0.000000
vt 0.555556 0.000000
vt 0.444444 0.000000
vt 0.111111 0.000000
vt 0.666667 0.000000
vt 0.888889 0.000000
vt 0.777778 0.000000
vt 0.222222 0.000000
vt 0.000000 1.000000
vt 0.100000 1.000000
vt 0.100000 0.000000
vt 0.200000 1.000000
vt 0.200000 0.000000
vt 0.300000 1.000000
vt 0.300000 0.000000
vt 0.400000 1.000000
vt 0.400000 0.000000
vt 0.500000 1.000000
vt 0.500000 0.000000
vt 0.600000 1.000000
vt 0.600000 0.000000
vt 0.700000 1.000000
vt 0.700000 0.000000
vt 0.800000 1.000000
vt 0.800000 0.000000
vt 0.900000 1.000000
vt 0.900000 0.000000
vt 1.000000 1.000000
vt 0.083333 1.000000
vt 0.083333 0.000000
vt 0.166667 1.000000
vt 0.166667 0.000000
vt 0.250000 1.000000
vt 0.250000 0.000000
vt 0.333333 1.000000
vt 0.416667 1.000000
vt 0.416667 0.000000
vt 0.583333 1.000000
vt 0.583333 0.000000
vt 0.666667 1.000000
vt 0.750000 1.000000
vt 0.750000 0.000000
vt 0.833333 1.000000
vt 0.833333 0.000000
vt 0.916667 1.000000
vt 0.916667 0.000000
vt 0.125000 1.000000
vt 0.125000 0.000000
vt 0.375000 1.000000
vt 0.375000 0.000000
vt 0.625000 1.000000
vt 0.625000 0.000000
vt 0.875000 1.000000
vt 0.875000 0.000000
s 0
f 5/1/1 7/2/1 6/3/1
f 5/1/1 8/4/1 7/2/1
f 4/5/1 8/4/1 5/1/1
f 3/6/1 1/7/1 4/5/1
f 1/7/1 8/4/1 4/5/1
f 3/6/1 2/8/1 1/7/1
f 14/9/1 16/10/1 15/11/1
f 14/9/1 17/12/1 16/10/1
f 17/12/1 19/13/1 18/14/1
f 17/12/1 20/4/1 19/13/1
f 14/9/1 20/4/1 17/12/1
f 13/15/1 20/4/1 14/9/1
f 13/15/1 11/16/1 20/4/1
f 11/16/1 9/7/1 20/4/1
f 13/15/1 12/17/1 11/16/1
f 10/18/1 9/7/1 11/16/1
f 29/12/1 21/7/1 30/14/1
f 21/7/1 31/13/1 30/14/1
f 21/7/1 32/4/1 31/13/1
f 29/12/1 22/18/1 21/7/1
f 29/12/1 25/15/1 22/18/1
f 25/15/1 23/16/1 22/18/1
f 25/15/1 24/17/1 23/16/1
f 29/12/1 26/9/1 25/15/1
f 29/12/1 27/11/1 26/9/1
f 29/12/1 28/10/1 27/11/1
f 36/19/1 38/20/1 37/21/1
f 36/19/1 34/22/1 38/20/1
f 34/22/1 39/23/1 38/20/1
f 39/23/1 41/24/1 40/25/1
f 39/23/1 42/4/1 41/24/1
f 36/19/1 35/26/1 34/22/1
f 33/7/1 39/23/1 34/22/1
f 33/7/1 42/4/1 39/23/1
f 47/1/2 48/3/2 49/2/2
f 47/1/2 49/2/2 50/4/2
f 46/5/1 47/1/1 50/4/1
f 45/6/2 46/5/2 43/7/2
f 43/7/1 46/5/1 50/4/1
f 45/6/2 43/7/2 44/8/2
f 56/9/2 57/11/2 58/10/2
f 56/9/2 58/10/2 59/12/2
f 59/12/2 60/14/2 61/13/2
f 59/12/2 61/13/2 62/4/2
f 56/9/2 59/12/2 62/4/2
f 55/15/2 56/9/2 62/4/2
f 55/15/2 62/4/2 53/16/2
f 53/16/2 62/4/2 51/7/2
f 55/15/2 53/16/2 54/17/2
f 52/18/2 53/16/2 51/7/2
f 71/12/2 72/14/2 63/7/2
f 63/7/2 72/14/2 73/13/2
f 63/7/2 73/13/2 74/4/2
f 71/12/2 63/7/2 64/18/2
f 71/12/2 64/18/2 67/15/2
f 67/15/2 64/18/2 65/16/2
f 67/15/2 65/16/2 66/17/2
f 71/12/2 67/15/2 68/9/2
f 71/12/2 68/9/2 69/11/2
f 71/12/2 69/11/2 70/10/2
f 78/19/2 79/21/2 80/20/2
f 78/19/2 80/20/2 76/22/2
f 76/22/2 80/20/2 81/23/2
f 81/23/2 82/25/2 83/24/2
f 81/23/2 83/24/2 84/4/2
f 78/19/2 76/22/2 77/26/2
f 75/7/2 76/22/2 81/23/2
f 75/7/2 81/23/2 84/4/2
s 1
f 86/27/3 88/28/4 87/29/4 85/7/3
f 88/28/4 90/30/5 89/31/5 87/29/4
f 90/30/5 92/32/6 91/33/6 89/31/5
f 92/32/6 94/34/7 93/35/7 91/33/6
f 94/34/7 96/36/8 95/37/8 93/35/7
f 96/36/8 98/38/9 97/39/9 95/37/8
f 98/38/9 100/40/7 99/41/7 97/39/9
f 100/40/7 102/42/10 101/43/10 99/41/7
f 102/42/10 104/44/5 103/45/5 101/43/10
f 104/44/5 86/46/3 85/4/3 103/45/5
f 106/27/5 108/47/10 107/48/10 105/7/5
f 108/47/10 110/49/10 109/50/10 107/48/10
f 110/49/10 112/51/5 111/52/5 109/50/10
f 112/51/5 114/53/5 113/19/5 111/52/5
f 114/53/5 116/54/10 115/55/10 113/19/5
f 116/54/10 118/36/10 117/37/10 115/55/10
f 118/36/10 120/56/5 119/57/5 117/37/10
f 120/56/5 122/58/6 121/23/6 119/57/5
f 122/58/6 124/59/7 123/60/7 121/23/6
f 124/59/7 126/61/10 125/62/10 123/60/7
f 126/61/10 128/63/5 127/64/5 125/62/10
f 128/63/5 106/46/5 105/4/5 127/64/5
f 130/27/11 132/47/12 131/48/12 129/7/11
f 132/47/12 134/49/13 133/50/13 131/48/12
f 134/49/13 136/51/14 135/52/14 133/50/13
f 136/51/14 138/53/15 137/19/15 135/52/14
f 138/53/15 140/54/16 139/55/16 137/19/15
f 140/54/16 142/36/17 141/37/17 139/55/16
f 142/36/17 144/56/18 143/57/18 141/37/17
f 144/56/18 146/58/19 145/23/19 143/57/18
f 146/58/19 148/59/20 147/60/20 145/23/19
f 148/59/20 150/61/21 149/62/21 147/60/20
f 150/61/21 152/63/22 151/64/22 149/62/21
f 152/63/22 130/46/11 129/4/11 151/64/22
f 154/27/5 156/65/5 155/66/5 153/7/5
f 156/65/5 158/51/6 157/52/6 155/66/5
f 158/51/6 160/67/6 159/68/6 157/52/6
f 160/67/6 162/36/6 161/37/6 159/68/6
f 162/36/6 164/69/7 163/70/7 161/37/6
f 164/69/7 166/59/10 165/60/10 163/70/7
f 166/59/10 168/71/5 167/72/5 165/60/10
f 168/71/5 154/46/5 153/4/5 167/72/5
